#!OML:ASF F:\VICON\USERDATA\INSTALL\rory3\rory3.ASF
:FULLY-SPECIFIED
:DEGREES
145
root 0.9998887742512904 17.834298741015758 42.93349019205762 -3.6440799388222325 -1.9594317685073088 1.3559921959602494
lfemur 7.011603276598082 -3.08932809972356 -23.280068368069866
ltibia 45.66927879915639
lfoot -13.061509358643153 -2.7237371929737293
ltoes -11.966132695688461
rfemur -14.204018404892409 2.8079925134985246 21.545744967325263
rtibia 44.19491354132573
rfoot -19.465182959589704 -8.853385346887308
rtoes 1.780579512979643
lowerback 9.329970524537941 -0.7992481851544172 -1.2389069107813813
upperback 0.13103180495861103 -1.2513217664997647 1.380805100413409
thorax -5.2413306975922085 -0.6827184894003482 2.115507797380658
lowerneck -16.56658120841224 -2.9626241989032924 -1.432122384227916
upperneck 21.41804933122755 -3.7905577495229257 0.3135188052417267
head 9.60557166921798 -1.8582090358229002 -0.18483028939056823
lclavicle -3.616362944307975e-16 5.803562888337073e-16
lhumerus -29.134047454264064 4.671689080544733 81.08327211030978
lradius 23.07605875117253
lwrist 6.873385369044691
lhand -28.958498332734624 20.796118453196836
lfingers 7.12502
lthumb -2.681887112972963 50.21232576549019
rclavicle -3.6163629435528175e-16 5.803562888846634e-16
rhumerus -26.331497523685353 -15.089682398040456 -78.76984832877162
rradius 32.74186294585795
rwrist 3.4646533631844205
rhand -17.827439828910446 21.090050574232542
rfingers 7.12502
rthumb 8.908805575395894 -7.564661771651287
146
root 1.0245399634136776 17.838666445929853 43.00868568619872 -3.685712136558175 -2.0306892503418887 1.6439906085531484
lfemur 8.040054418588463 -3.3631775312268974 -23.790980793606487
ltibia 44.48018775678686
lfoot -12.963333493893089 -2.83468701707589
ltoes -12.462947364519795
rfemur -14.785967535758413 2.800083029609806 21.472972526124142
rtibia 43.448611171477324
rfoot -19.167344822503086 -8.664706052615566
rtoes 3.3640551426155625
lowerback 9.306379077337214 -0.8944663735580877 -1.492720637318844
upperback 0.11661225717320362 -1.419500541096562 1.3512251854228774
thorax -5.250672589835391 -0.7815898650423565 2.219541416704896
lowerneck -16.501814029231276 -2.9637683395521743 -1.4613097251484803
upperneck 21.416384746740313 -3.7922166533338855 0.33040182699521237
head 9.566241942900287 -1.864477104561485 -0.16790278391704488
lclavicle -3.6163629443079443e-16 5.803562888339549e-16
lhumerus -29.432845415047677 3.940293451913181 80.7410304490362
lradius 23.27216058736617
lwrist 6.679615557440231
lhand -28.99355630933705 20.740122213132924
lfingers 7.12502
lthumb -2.716527974655924 50.140482173372774
rclavicle -3.6163629435017915e-16 5.803562888882321e-16
rhumerus -26.095904718583046 -14.995019873316428 -78.9858988059182
rradius 32.69033879580577
rwrist 3.44657548313011
rhand -17.88896071064189 21.03322719137867
rfingers 7.12502
rthumb 8.89356920975772 -7.53582210327947
147
root 1.0671308832150492 17.860371896514064 43.41251492952613 -3.372069845044445 -1.7969542520864314 1.2728143131125234
lfemur 8.834078223951456 -3.7050845761139195 -23.815841642180697
ltibia 43.39315344167353
lfoot -12.922151563396472 -2.860619852559326
ltoes -12.375932920106646
rfemur -15.043669133659069 2.7895166449655386 21.905547011922703
rtibia 42.262827677788444
rfoot -18.914504806061174 -8.385658404018084
rtoes 1.9668398270099268
lowerback 9.178294974025107 -1.062221917422812 -1.1516514440849372
upperback 0.11807928094479779 -1.6639782309599433 1.376064103525046
thorax -5.187348092344057 -0.9131819535335988 2.3327640391034636
lowerneck -16.543429760512506 -2.973186811813512 -1.4991375184217504
upperneck 21.427194703124325 -3.8075573785081693 0.2723593331666384
head 9.560013355388644 -1.873207692523642 -0.19829552374678486
lclavicle -3.6163629442772147e-16 5.803562888360858e-16
lhumerus -28.78892887375433 4.112906893782325 80.7206289274328
lradius 23.503075369419328
lwrist 6.930677701013823
lhand -28.91323707162021 20.744541111249823
lfingers 7.12502
lthumb -2.552898695850332 50.31131191280679
rclavicle -3.6163629435197514e-16 5.803562888872201e-16
rhumerus -25.985973315574427 -14.796699151764054 -79.00796642100606
rradius 32.68785852786117
rwrist 3.2294037721144524
rhand -17.846722130087205 21.17588629937517
rfingers 7.12502
rthumb 8.952400217934084 -7.325613937513374
148
root 1.0844293002317926 17.896294074707953 42.76581036223676 -2.803565486610264 -1.5822382890194846 0.17241931903907792
lfemur 8.718431785869248 -3.904634009692886 -23.09939634665437
ltibia 42.958836485529076
lfoot -12.832464405858763 -2.6284871887071426
ltoes -13.840294509015326
rfemur -14.7998023917744 2.96644905169527 22.917640167245835
rtibia 40.01505140562824
rfoot -18.736526295840513 -8.186053257781705
rtoes -0.14772850084885203
lowerback 9.003764206840515 -1.204957121558746 -0.30533457195722913
upperback 0.04827975449786645 -1.7075272235518586 1.5390673331815912
thorax -5.201127596845662 -0.9458008770248052 2.3853768227471024
lowerneck -16.557660257882983 -2.981465601411339 -1.5343434544413237
upperneck 21.477570900388606 -3.8101833515947767 0.15480838140592973
head 9.59086076346359 -1.8734457479440905 -0.251531647938563
lclavicle -3.6163629442960586e-16 5.803562888348855e-16
lhumerus -29.09040250616051 3.5432716867237968 80.45342911125412
lradius 23.833649024576218
lwrist 7.397960129960902
lhand -28.700354049850493 21.681198666149378
lfingers 7.12502
lthumb -2.312930312476738 51.49427020729455
rclavicle -3.616362943544301e-16 5.803562888855966e-16
rhumerus -25.913538049074386 -14.708968287644316 -79.1587946618474
rradius 32.72202564697515
rwrist 3.261068819552436
rhand -17.870004302252628 21.244432740708707
rfingers 7.12502
rthumb 8.946749803412825 -7.153664268380386
